# xmcd
#
# Track frame offsets:
#	150
#	10602
#	24772
#	46467
#	58755
#	70827
#	90342
#	104585
#	114022
#	128262
#	140640
#	151685
#	172390
#	187212
#	201880
#	214077
#	227382
#	239425
#	260295
#	274317
#
# Disc length: 3817
#
# Revision: 1
# Processed by: cddbd v1.5.1PL0 Copyright (c) Steve Scherf et al.
# Submitted via: VisiTrax 2.9.5.181 - For more info visit www.synapsa.com
# Normalized: r0:DSETVAR1
#
DISCID=0e0ee714
DTITLE=Various Artist - Tracks and Trains
DYEAR=2002
DGENRE=
TTITLE0=Bob Dylan - Freight Train Blues
TTITLE1=Johnny Cash - Orrange Blossom Spesial
TTITLE2=Willie Nelson - City Of New Orleans
TTITLE3=Dolly Parton - Night Train To Memphis (live)
TTITLE4=John Denver - Waiting For a Train
TTITLE5=The Charlie Daniels Band - Midnight Train
TTITLE6=Marty Robbins - Ghost Train
TTITLE7=Johnny Horton - The Golden Rocket
TTITLE8=Marty Stewart - Last Train Done Gone
TTITLE9=Willie Nelson and Hank Snow - I`m Moving On
TTITLE10=Flatt and Scruggs - Big Black Train
TTITLE11=Merle Haggard - I Wan`t Give Up My Train
TTITLE12=Asleep At The Wheel - Choo Choo Ch`Boogie
TTITLE13=Rosanne Cash - My Baby Thinks He`s a Train
TTITLE14=Stonewall Jackson - Smoke Along The Track
TTITLE15=Rob Luman - Mystery Train
TTITLE16=Johnny Horton - Rock Island
TTITLE17=The Highwaymen - Desperados Waiting for A Train
TTITLE18=David Allan Coe - The Great Nashville Railroad Disaster (A true story)
TTITLE19=Johnny Cash - Georgia On a Fast Train
EXTD=
EXTT0=
EXTT1=
EXTT2=
EXTT3=
EXTT4=
EXTT5=
EXTT6=
EXTT7=
EXTT8=
EXTT9=
EXTT10=
EXTT11=
EXTT12=
EXTT13=
EXTT14=
EXTT15=
EXTT16=
EXTT17=
EXTT18=
EXTT19=
PLAYORDER=
